<?xml version="1.0" encoding="utf-8"?>
<!-- Generator: Adobe Illustrator 28.1.0, SVG Export Plug-In . SVG Version: 6.00 Build 0)  -->
<svg version="1.1" id="Layer_1" xmlns="http://www.w3.org/2000/svg" xmlns:xlink="http://www.w3.org/1999/xlink" x="0px" y="0px"
	 viewBox="0 0 400 400" style="enable-background:new 0 0 400 400;" xml:space="preserve">
<style type="text/css">
	.st0{fill:#221F1F;}
</style>
<path class="st0" d="M0,0v400h400V0H0z M378.6,355.6l-89.1-89.1c0,73.4-59.5,132.9-132.9,132.9S23.8,339.9,23.8,266.5h265.7h89.1
	V355.6z M378.6,89.9L289.6,0.8c0,73.4-59.5,132.9-132.9,132.9h132.9h89.1v89.1l-89.1-89.1c0,73.4-59.5,132.9-132.9,132.9
	S23.8,207,23.8,133.6h132.9C83.3,133.6,23.8,74.2,23.8,0.8h265.7h89.1V89.9z"/>
</svg>
